<?xml version="1.0" standalone="no"?>
<!DOCTYPE svg PUBLIC "-//W3C//DTD SVG 20010904//EN"
 "http://www.w3.org/TR/2001/REC-SVG-20010904/DTD/svg10.dtd">
<svg version="1.0" xmlns="http://www.w3.org/2000/svg"
 width="500.000000pt" height="500.000000pt" viewBox="0 0 500.000000 500.000000"
 preserveAspectRatio="xMidYMid meet">

<g transform="translate(0.000000,500.000000) scale(0.100000,-0.100000)"
fill="#000000" stroke="none">
<path d="M2760 4017 c-14 -6 -27 -14 -30 -17 -3 -3 -24 -14 -47 -24 -24 -11
-43 -22 -43 -25 0 -4 -15 -15 -32 -26 -18 -10 -40 -27 -49 -37 -9 -10 -21 -18
-28 -18 -6 0 -11 -4 -11 -8 0 -5 -16 -17 -35 -28 -19 -10 -35 -23 -35 -29 0
-11 -21 -37 -86 -108 -14 -16 -48 -61 -76 -100 -28 -39 -61 -82 -74 -96 -13
-14 -24 -31 -24 -38 0 -7 -4 -13 -10 -13 -5 0 -10 -6 -10 -14 0 -8 -6 -21 -13
-28 -7 -7 -19 -33 -27 -58 -8 -25 -17 -47 -20 -50 -5 -5 -9 -14 -46 -97 -11
-24 -22 -43 -26 -43 -5 0 -8 -9 -8 -20 0 -11 -4 -20 -10 -20 -5 0 -10 -7 -10
-15 0 -8 -4 -15 -8 -15 -5 0 -18 -19 -30 -42 -12 -24 -32 -55 -45 -70 -13 -15
-32 -39 -43 -54 -42 -59 -152 -162 -200 -188 -44 -24 -60 -27 -105 -23 -53 4
-181 45 -187 60 -2 4 -9 7 -17 7 -7 0 -18 7 -25 15 -17 21 -30 19 -30 -5 0
-11 5 -20 10 -20 6 0 10 -6 10 -14 0 -8 16 -45 35 -81 19 -37 32 -71 30 -76
-3 -4 -24 -7 -46 -6 -26 1 -43 -4 -49 -13 -12 -20 -222 -22 -242 -2 -6 6 -19
12 -27 12 -16 0 -111 98 -111 115 0 5 -16 21 -35 35 -19 14 -45 46 -58 72 -12
26 -28 47 -35 48 -7 0 -40 25 -75 56 -78 69 -84 74 -96 74 -5 0 -22 10 -38 23
-45 36 -105 64 -150 72 -43 7 -43 7 -43 -24 0 -17 4 -31 9 -31 5 0 11 -8 15
-17 7 -23 28 -56 41 -65 6 -5 1 -16 -12 -30 -18 -17 -25 -20 -35 -10 -7 7 -24
12 -39 12 -15 0 -31 5 -34 10 -7 11 -45 13 -69 4 -28 -11 -17 -49 29 -98 25
-27 45 -57 45 -67 0 -16 -8 -19 -54 -19 -30 0 -61 -3 -70 -6 -17 -6 -23 -54
-7 -54 5 0 13 -9 16 -20 3 -11 15 -20 26 -20 10 0 19 -4 19 -9 0 -4 21 -16 47
-26 27 -10 50 -21 53 -25 3 -3 24 -12 48 -20 23 -7 47 -19 53 -27 6 -7 29 -13
51 -13 22 0 49 -5 61 -12 12 -6 63 -13 112 -14 125 -3 248 -19 253 -33 2 -6
15 -11 28 -11 13 0 24 -4 24 -10 0 -5 14 -10 30 -10 34 0 86 -23 92 -41 3 -9
9 -9 25 0 12 6 55 11 95 12 40 0 96 5 123 10 103 21 150 14 196 -31 43 -43 88
-80 97 -80 4 0 20 -11 36 -25 15 -13 41 -30 57 -37 16 -7 29 -16 29 -20 0 -5
9 -8 20 -8 11 0 20 -4 20 -9 0 -5 13 -12 30 -16 16 -4 32 -11 35 -16 4 -5 15
-9 26 -9 10 0 27 -4 37 -9 64 -34 323 -49 407 -24 22 6 61 17 88 24 26 6 47
16 47 21 0 6 7 7 16 4 11 -4 18 1 21 14 3 11 9 20 14 20 22 0 139 115 218 214
53 67 55 68 90 61 20 -4 67 -10 105 -14 56 -5 69 -4 74 9 10 25 31 42 50 38
13 -2 18 -15 20 -51 2 -28 -1 -47 -7 -47 -24 0 -8 -34 37 -81 53 -56 104 -89
110 -70 5 16 59 14 86 -4 21 -14 25 -14 49 6 15 11 27 29 27 40 0 10 5 19 10
19 6 0 10 9 10 21 0 11 7 27 15 35 8 9 15 24 15 34 0 10 5 22 10 25 6 3 10 17
10 31 0 13 4 24 8 24 4 0 14 20 21 46 7 25 20 51 27 59 8 7 14 25 14 40 0 14
7 28 15 31 10 4 14 23 14 72 0 37 5 83 11 102 5 19 10 74 10 122 0 84 1 88 22
88 26 0 98 31 98 42 0 4 11 8 24 8 14 0 28 5 31 10 3 6 14 10 24 10 10 0 32 7
47 15 16 8 37 15 47 15 9 0 17 5 17 10 0 6 11 10 25 10 14 0 25 5 25 10 0 6 6
10 14 10 17 0 76 32 76 41 0 4 -20 13 -45 20 -25 7 -45 17 -45 21 0 4 -8 8
-17 8 -10 0 -27 7 -37 15 -11 8 -30 15 -43 15 -13 0 -23 5 -23 10 0 6 -10 10
-23 10 -13 0 -32 7 -43 15 -10 8 -27 15 -36 15 -10 0 -18 5 -18 10 0 6 -11 10
-24 10 -13 0 -26 4 -28 8 -1 4 -25 15 -53 24 -48 15 -50 17 -56 58 -3 23 -10
45 -15 48 -6 4 -18 23 -28 42 -9 19 -30 58 -46 85 -16 28 -33 57 -37 65 -3 8
-19 26 -34 40 -15 14 -30 35 -34 48 -3 12 -11 22 -17 22 -9 0 -68 43 -104 75
-34 30 -55 45 -63 45 -5 0 -40 16 -77 35 -66 35 -68 35 -193 34 -73 0 -137 -5
-151 -12z"/>
<path d="M1720 2210 c0 -5 5 -10 11 -10 5 0 7 5 4 10 -3 6 -8 10 -11 10 -2 0
-4 -4 -4 -10z"/>
<path d="M3285 2211 c-7 -12 12 -24 25 -16 11 7 4 25 -10 25 -5 0 -11 -4 -15
-9z"/>
<path d="M2120 1815 c0 -8 5 -15 10 -15 6 0 10 7 10 15 0 8 -4 15 -10 15 -5 0
-10 -7 -10 -15z"/>
<path d="M3793 1771 c-7 -22 -13 -47 -13 -55 0 -8 -8 -20 -17 -25 -10 -6 -12
-11 -5 -11 16 0 17 -182 1 -212 -7 -13 -7 -23 -2 -27 6 -3 13 -30 17 -59 10
-74 46 -132 83 -132 24 0 53 20 53 35 0 8 5 15 10 15 6 0 10 5 10 10 0 18 -17
10 -30 -15 -17 -32 -22 -31 -59 6 l-31 31 2 171 3 171 25 7 25 6 -25 4 c-23 4
-25 10 -30 62 l-5 59 -12 -41z"/>
<path d="M3962 1783 c-1 -17 -6 -35 -12 -38 -5 -3 -10 -17 -10 -30 0 -13 -6
-26 -12 -28 -10 -4 -10 -6 0 -6 9 -1 12 -44 12 -181 0 -105 4 -180 9 -180 5 0
13 -9 16 -20 17 -53 92 -61 114 -14 17 38 13 40 -16 8 -17 -18 -28 -24 -31
-16 -2 6 -10 12 -18 12 -8 0 -14 6 -14 14 0 8 -6 16 -12 18 -10 4 -14 47 -16
158 -4 177 -1 200 31 201 21 1 20 1 -3 8 -22 6 -26 14 -31 66 -3 33 -6 46 -7
28z"/>
<path d="M3075 1731 l80 -6 -3 -70 c-11 -268 -12 -445 -2 -445 5 0 10 -8 10
-18 0 -39 61 -67 110 -52 23 7 23 8 -8 9 -43 1 -55 14 -69 76 -20 84 -24 175
-12 280 6 55 13 128 16 162 l5 62 81 4 c45 1 -1 3 -103 3 -115 0 -155 -2 -105
-5z"/>
<path d="M2553 1703 c-9 -3 -13 -32 -13 -91 -1 -127 -15 -283 -27 -290 -5 -4
-18 -22 -28 -39 -11 -18 -23 -33 -27 -33 -4 0 -8 -5 -8 -11 0 -7 -8 -19 -18
-28 -25 -23 -52 -67 -52 -86 0 -24 44 -18 68 10 12 14 22 28 22 30 0 14 40 46
49 40 6 -3 11 -23 11 -43 0 -20 6 -44 13 -53 21 -27 47 0 47 48 0 22 3 42 6
45 13 13 41 -6 69 -47 32 -48 46 -58 70 -49 17 7 21 44 5 44 -5 0 -10 5 -10
10 0 6 -11 23 -25 38 -14 15 -25 30 -25 34 0 5 -14 23 -30 40 -54 56 -59 78
-62 262 -3 165 -6 181 -35 169z"/>
<path d="M2127 1693 c-4 -3 -7 -87 -7 -186 l0 -179 -25 -20 c-14 -11 -25 -25
-25 -31 0 -7 -10 -23 -23 -37 -13 -14 -38 -47 -56 -73 -31 -46 -32 -50 -17
-65 16 -16 21 -13 75 45 32 35 61 60 64 56 4 -3 7 -24 7 -45 0 -37 17 -68 38
-68 15 0 32 49 32 93 l0 42 28 -31 c46 -53 72 -88 72 -96 0 -14 31 -9 46 7 14
13 14 17 0 31 -9 8 -16 19 -16 23 0 5 -13 22 -30 39 -16 18 -30 36 -30 42 0 5
-3 10 -8 10 -4 0 -16 16 -26 35 -11 19 -23 35 -28 35 -4 0 -8 86 -8 190 l0
190 -28 0 c-16 0 -32 -3 -35 -7z"/>
<path d="M3343 1580 c-16 -24 -18 -196 -3 -205 6 -3 10 -15 10 -26 0 -14 7
-19 26 -19 29 0 50 17 56 46 3 16 11 19 51 17 26 -2 47 2 47 7 0 6 -10 10 -21
10 -27 0 -48 27 -49 63 0 15 -4 27 -10 27 -5 0 -10 -11 -10 -25 0 -14 -4 -33
-9 -43 -5 -9 -12 -25 -15 -34 -8 -26 -45 -23 -51 5 -3 12 -6 61 -8 110 -2 75
-4 85 -14 67z"/>
<path d="M4273 1531 c2 -34 7 -64 10 -68 4 -3 7 -19 7 -35 0 -15 5 -28 10 -28
6 0 10 32 10 75 0 63 -3 78 -21 96 l-21 21 5 -61z"/>
<path d="M4464 1549 c3 -24 9 -69 14 -99 l8 -55 5 80 c4 68 2 82 -14 98 -19
19 -19 18 -13 -24z"/>
<path d="M4654 1550 c3 -25 9 -70 14 -100 l8 -55 5 78 c3 53 9 81 19 88 12 8
10 9 -7 4 -15 -4 -25 0 -33 12 -8 14 -10 9 -6 -27z"/>
<path d="M4102 1561 c-28 -24 -31 -100 -4 -123 35 -32 56 -37 95 -25 44 14 49
25 7 19 -44 -6 -80 5 -80 26 0 10 -4 22 -10 28 -17 17 11 74 37 74 13 0 23 5
23 10 0 17 -46 11 -68 -9z"/>
<path d="M3636 1549 c-10 -15 -12 -27 -6 -33 6 -6 10 -24 10 -41 0 -17 5 -36
12 -43 13 -13 88 -17 88 -4 0 4 -15 6 -33 4 -44 -5 -66 31 -50 82 14 45 1 66
-21 35z"/>
<path d="M4390 1552 c0 -10 -6 -24 -12 -31 -11 -10 -10 -11 5 -6 15 6 26 55
12 55 -3 0 -5 -8 -5 -18z"/>
<path d="M4580 1552 c0 -10 -6 -24 -12 -31 -11 -10 -10 -11 5 -6 15 6 26 55
12 55 -3 0 -5 -8 -5 -18z"/>
<path d="M4770 1552 c0 -10 -6 -24 -12 -31 -11 -10 -10 -11 5 -6 15 6 26 55
12 55 -3 0 -5 -8 -5 -18z"/>
<path d="M3541 1468 c1 -72 5 -68 12 10 2 28 0 52 -4 52 -5 0 -9 -28 -8 -62z"/>
<path d="M3302 1190 c0 -14 2 -19 5 -12 2 6 2 18 0 25 -3 6 -5 1 -5 -13z"/>
</g>
</svg>
